<svg width="38" height="38" viewBox="0 0 38 38" fill="none" xmlns="http://www.w3.org/2000/svg">
<circle cx="18.7324" cy="18.7324" r="18.7324" fill="#4FD1C5"/>
<path d="M27.4115 12.4733C26.4853 8.9031 23.6919 6.57275 18.7324 6.57275C13.5489 6.57275 9.87412 9.30643 9.87412 13.3696C9.87412 16.6261 11.8459 18.7921 16.1481 19.7482L20.032 20.5996C22.2429 21.0926 23.2736 22.0785 23.2736 23.5126C23.2736 25.2902 21.3765 26.6794 18.4486 26.6794C15.7747 26.6794 14.0568 25.5292 13.519 23.2736L9.2019 23.9308C9.94881 27.994 13.3248 30.2795 18.4785 30.2795C24.0205 30.2795 27.8596 27.3367 27.8596 23.1839C27.8596 19.9424 25.7981 17.9407 21.5856 16.9697L17.9407 16.1331C15.4162 15.5356 14.3257 14.6841 14.3406 13.1306C14.3257 11.3679 16.2378 10.1131 18.7772 10.1131C21.5557 10.1131 22.8404 11.6517 23.3632 13.1903L27.4115 12.4733Z" fill="#1A202C"/>
</svg>
